<?xml version="1.0" standalone="no"?>
<!DOCTYPE svg PUBLIC "-//W3C//DTD SVG 20010904//EN"
 "http://www.w3.org/TR/2001/REC-SVG-20010904/DTD/svg10.dtd">
<svg version="1.0" xmlns="http://www.w3.org/2000/svg"
 width="500.000000pt" height="500.000000pt" viewBox="0 0 500.000000 500.000000"
 preserveAspectRatio="xMidYMid meet">
<metadata>
Created by potrace 1.14, written by Peter Selinger 2001-2017
</metadata>
<g transform="translate(0.000000,500.000000) scale(0.100000,-0.100000)"
fill="#000000" stroke="none">
<path d="M2358 4965 c-2 -2 -37 -6 -78 -10 -96 -9 -104 -10 -170 -20 -30 -5
-58 -8 -62 -7 -5 1 -8 -2 -8 -6 0 -4 -12 -7 -27 -6 -16 1 -35 -2 -43 -6 -8 -5
-31 -11 -50 -14 -19 -3 -50 -10 -67 -15 -18 -5 -33 -7 -33 -3 0 4 -4 1 -8 -5
-4 -7 -17 -14 -27 -16 -24 -4 -119 -34 -155 -49 -41 -17 -82 -35 -125 -54 -22
-10 -47 -19 -55 -20 -8 -2 -16 -8 -18 -13 -2 -6 -12 -11 -22 -11 -10 0 -21 -4
-24 -9 -3 -5 -35 -24 -71 -42 -36 -18 -65 -36 -65 -41 0 -5 -4 -6 -10 -3 -5 3
-10 1 -10 -4 0 -6 -5 -11 -10 -11 -11 0 -122 -74 -148 -97 -7 -7 -17 -13 -21
-13 -4 0 -16 -8 -27 -18 -10 -9 -39 -33 -64 -52 -81 -62 -240 -215 -240 -230
0 -5 -7 -10 -15 -10 -8 0 -15 -3 -15 -7 0 -7 -30 -44 -90 -110 -19 -22 -103
-136 -125 -171 -5 -9 -18 -25 -27 -36 -10 -11 -18 -23 -18 -27 0 -5 -13 -27
-29 -51 -41 -63 -129 -237 -172 -343 -20 -49 -59 -159 -64 -179 -2 -11 -11
-40 -19 -65 -9 -25 -17 -57 -20 -71 -2 -14 -9 -43 -14 -65 -6 -22 -14 -56 -17
-75 -6 -33 -9 -52 -20 -125 -25 -171 -25 -561 0 -675 3 -14 8 -41 10 -60 5
-37 13 -75 15 -75 1 0 3 -20 6 -44 2 -24 9 -50 15 -58 6 -7 9 -13 6 -13 -3 0
3 -30 14 -67 11 -38 22 -75 24 -83 2 -8 11 -36 19 -62 8 -27 12 -48 8 -48 -4
0 0 -5 8 -10 8 -5 16 -14 16 -20 1 -5 2 -16 3 -24 0 -8 8 -22 17 -30 8 -9 13
-16 10 -16 -7 0 18 -60 64 -150 60 -120 83 -160 92 -160 4 0 8 -6 8 -14 0 -8
6 -21 13 -28 16 -18 35 -48 46 -73 5 -11 20 -32 35 -48 14 -15 26 -31 27 -35
5 -33 296 -352 321 -352 5 0 6 -5 3 -10 -3 -6 -2 -10 3 -10 5 0 23 -13 40 -30
18 -16 34 -30 37 -30 3 0 14 -8 24 -18 55 -50 81 -71 81 -64 0 4 4 2 8 -4 10
-15 189 -134 202 -134 5 0 10 -4 10 -10 0 -5 6 -10 14 -10 7 0 19 -7 26 -15 7
-8 16 -12 21 -9 5 3 9 0 9 -6 0 -6 4 -9 9 -6 5 4 11 3 13 -1 6 -16 212 -111
333 -154 141 -51 358 -105 460 -114 22 -2 65 -8 95 -12 30 -5 68 -8 83 -8 15
1 27 -2 27 -7 0 -5 7 -5 15 0 9 4 40 5 70 2 30 -3 61 -2 69 2 8 5 17 4 20 -1
3 -4 18 -7 33 -5 16 2 69 6 118 9 50 2 101 7 115 10 14 3 45 7 70 10 25 3 56
8 70 11 14 3 34 7 45 8 26 3 125 26 145 33 8 4 21 5 28 4 6 -1 12 3 12 9 0 6
4 9 9 6 23 -15 441 154 462 186 3 5 8 9 10 8 7 -3 84 34 91 44 3 5 13 11 22
12 9 1 23 9 32 18 8 9 20 16 25 16 6 0 16 6 23 13 8 6 24 19 36 27 38 25 145
103 150 109 3 3 25 22 50 42 25 20 67 57 94 83 27 25 54 46 59 46 6 0 8 2 5 5
-2 3 22 32 54 66 32 33 58 65 58 70 0 6 5 7 10 4 6 -3 10 -1 10 4 0 6 8 19 18
29 44 48 112 137 131 174 8 15 17 25 21 23 5 -3 10 5 14 18 3 12 14 31 24 42
10 11 21 27 25 35 4 8 18 33 31 55 25 40 110 206 111 215 1 3 8 19 18 36 9 17
13 34 10 38 -4 3 0 6 7 6 7 0 11 3 8 6 -4 3 2 24 12 47 10 23 16 45 14 49 -3
4 -1 8 4 8 5 0 12 12 15 28 3 15 19 74 35 132 27 94 35 128 47 195 2 11 4 21
5 23 4 4 6 16 14 77 5 33 10 69 12 80 16 82 22 393 9 490 -3 28 -8 68 -10 90
-5 62 -21 160 -25 160 -1 0 -3 16 -5 35 -2 19 -4 35 -5 35 -1 0 -3 11 -6 25
-2 14 -7 32 -11 40 -3 8 -8 24 -10 35 -20 107 -99 318 -178 475 -60 120 -78
152 -92 168 -7 7 -13 20 -13 28 0 8 -4 14 -8 14 -5 0 -17 16 -28 35 -10 19
-22 35 -26 35 -3 0 -9 9 -13 20 -3 11 -21 37 -38 59 -18 22 -40 50 -50 63 -67
88 -250 278 -267 278 -6 0 -8 5 -5 10 3 6 3 10 -2 10 -4 0 -25 16 -46 35 -52
46 -101 86 -167 134 -30 22 -62 46 -70 53 -8 7 -15 11 -16 8 -2 -3 -14 5 -28
17 -14 13 -26 20 -26 16 0 -3 -8 1 -17 9 -22 19 -114 70 -208 115 -38 19 -78
39 -88 44 -56 30 -308 117 -330 113 -9 -1 -17 1 -17 5 0 4 -26 13 -57 19 -32
6 -69 13 -83 16 -14 3 -38 8 -55 11 -16 3 -43 7 -60 10 -44 8 -103 15 -160 21
-54 6 -363 13 -367 9z"/>
</g>
</svg>
